# xmcd CD database file
#
# Track frame offsets:
#	150
#	12321
#	28770
#	41389
#	58206
#	70861
#	85420
#	101985
#	115786
#	130321
#	147302
#
# Disc length: 2090 seconds
#
# Revision: 0
# Processed by: cddbd v1.5.2PL0 Copyright (c) Steve Scherf et al.
# Submitted via: CDex 1.70beta2
#
DISCID=9d08280b
DTITLE=Kellie Pickler - 100 Proof
DYEAR=2012
DGENRE=Country
TTITLE0=Where's Tammy Wynette
TTITLE1=Unlock That Honky Tonk
TTITLE2=Stop Cheatin' On Me
TTITLE3=Long As I Never See You Again
TTITLE4=Tough
TTITLE5=Turn On The Radio And Dance
TTITLE6=Mother's Day
TTITLE7=Rockaway (The Rockin' Chair Song)
TTITLE8=Little House On The Highway
TTITLE9=100 Proof
TTITLE10=The Letter (To Daddy)
EXTD=YEAR: 2012
EXTT0=
EXTT1=
EXTT2=
EXTT3=
EXTT4=
EXTT5=
EXTT6=
EXTT7=
EXTT8=
EXTT9=
EXTT10=
PLAYORDER=
